<svg width="512" height="512" xmlns="http://www.w3.org/2000/svg"><defs><radialGradient cx="15.013%" cy="55.499%" fx="15.013%" fy="55.499%" r="56.248%" gradientTransform="matrix(1 0 0 .60294 0 .22)" id="a"><stop stop-color="#878787" offset="0%"/><stop stop-color="#FFF" offset="100%"/></radialGradient></defs><g fill="none" fill-rule="evenodd"><rect fill="#17191F" width="512" height="512" rx="72"/><g fill-rule="nonzero"><path d="M145.289 145.683 279.41 10.646a35.133 35.133 0 0 1 10.222-7.154A34.723 34.723 0 0 1 304.864 0C324.27 0 340 15.839 340 35.376v269.248C340 324.162 324.27 340 304.864 340c-19.405 0-35.136-15.838-35.136-35.376V184.557c-.139-10.737-6.655-20.344-16.537-24.382-9.881-4.038-21.204-1.72-28.736 5.881l-29.462 29.664a35.016 35.016 0 0 1-24.846 10.362 35.016 35.016 0 0 1-24.845-10.362A35.498 35.498 0 0 1 135 170.704a35.499 35.499 0 0 1 10.289-25.021Z" fill="url(#a)" transform="translate(86 86)"/><path d="M280.711 231.682 146.59 96.646a35.133 35.133 0 0 0-10.222-7.154A34.72 34.72 0 0 0 121.136 86C101.73 86 86 101.838 86 121.376v269.248C86 410.162 101.73 426 121.136 426c19.405 0 35.136-15.838 35.136-35.376V270.556c.139-10.736 6.655-20.343 16.537-24.381 9.881-4.038 21.204-1.72 28.736 5.881l29.462 29.663a35.016 35.016 0 0 0 24.846 10.363 35.016 35.016 0 0 0 24.845-10.363A35.498 35.498 0 0 0 291 256.704a35.499 35.499 0 0 0-10.289-25.022Z" fill="#FFF"/></g></g></svg>