<svg xmlns="http://www.w3.org/2000/svg" viewBox="0 0 53.3 86.55"><defs><linearGradient id="a" x1="25.87" y1="21.03" x2="40.74" y2="85.76" gradientUnits="userSpaceOnUse"><stop offset="0" stop-color="#00f0ff"/><stop offset="1" stop-color="#00f0ff" stop-opacity="0"/></linearGradient></defs><g data-name="Capa 2"><path d="M2.81 0a57.09 57.09 0 0 1 14.88 2.68 14.55 14.55 0 0 1 1.78.64l1.74.68 1.75.7 1.68.86c1.1.59 2.24 1.1 3.31 1.76l3.15 2A53.65 53.65 0 0 1 42 19.52a54 54 0 0 1 7.53 12.69 51.86 51.86 0 0 1 3 28.77 51.38 51.38 0 0 1-12.9 25.57 48.72 48.72 0 0 0 12.14-25.68A49.45 49.45 0 0 0 47.7 33l-1.62-3.15c-.54-1.05-1.24-2-1.86-3l-.95-1.49L42.18 24c-.75-.9-1.41-1.89-2.23-2.73a50.52 50.52 0 0 0-10.74-8.95 48.15 48.15 0 0 0-12.75-5.5A52.08 52.08 0 0 0 2.81 5.3h-.14A2.66 2.66 0 0 1 2.63 0Z" style="fill:url(#a)" data-name="Capa 1"/></g></svg>