<svg width="45" height="45" xmlns="http://www.w3.org/2000/svg"><defs><radialGradient cx="15.013%" cy="55.499%" fx="15.013%" fy="55.499%" r="56.248%" gradientTransform="matrix(1 0 0 .60345 0 .22)" id="a"><stop stop-color="#878787" offset="0%"/><stop stop-color="#FFF" offset="100%"/></radialGradient></defs><g fill="none"><path d="M19.208 19.282 36.974 1.409c.392-.394.85-.715 1.354-.947A4.603 4.603 0 0 1 40.346 0C42.916 0 45 2.096 45 4.682v35.636C45 42.904 42.916 45 40.346 45s-4.654-2.096-4.654-4.682V24.427A3.532 3.532 0 0 0 33.5 21.2a3.496 3.496 0 0 0-3.807.778l-3.902 3.926a4.64 4.64 0 0 1-3.291 1.372 4.64 4.64 0 0 1-3.292-1.372 4.696 4.696 0 0 1-1.364-3.31c0-1.243.49-2.434 1.363-3.312Z" fill="url(#a)"/><path d="M25.792 19.282 8.026 1.409A4.654 4.654 0 0 0 6.672.462 4.602 4.602 0 0 0 4.654 0C2.084 0 0 2.096 0 4.682v35.636C0 42.904 2.084 45 4.654 45s4.654-2.096 4.654-4.682V24.427A3.532 3.532 0 0 1 11.5 21.2a3.496 3.496 0 0 1 3.807.778l3.902 3.926a4.64 4.64 0 0 0 3.291 1.372 4.64 4.64 0 0 0 3.292-1.372 4.696 4.696 0 0 0 1.364-3.31c0-1.243-.49-2.434-1.363-3.312Z" fill="#FFF"/></g></svg>